<svg width="80" height="60" viewBox="0 0 80 60" fill="none" xmlns="http://www.w3.org/2000/svg">
<circle cx="31" cy="30.5801" r="19" fill="#E6E6E6"/>
<circle cx="37.5" cy="29.5" r="2.5" fill="#515151"/>
<circle cx="25.775" cy="30.2594" r="2.13045" fill="#515151"/>
<path d="M31.5662 30.5801C29.7546 30.5801 28.5469 31.2946 28.5469 31.9313C28.5469 32.9757 29.7424 34.2575 31.681 34.2575C33.6197 34.2575 34.6253 32.7656 34.6253 31.9313C34.6253 31.3786 33.3779 30.5801 31.5662 30.5801Z" fill="#A8A8A8"/>
<ellipse cx="23.3385" cy="34.2586" rx="2.14516" ry="1.83871" fill="#C4C4C4"/>
<ellipse cx="41" cy="34.5" rx="3" ry="2.5" fill="#C4C4C4"/>
<path d="M27.4496 5.19888C24.3843 6.04054 25.4009 11.2466 27.1596 13.5062L35.9433 15.0741C37.3112 12.8147 38.5413 9.03382 35.8592 6.58238C34.1617 5.03088 31.7893 6.72801 31.8482 7.65758C31.3666 5.87324 29.4076 4.66125 27.4496 5.19888Z" fill="#E6E6E6"/>
<path d="M55.356 37.5499L52.6523 40.3164L54.7261 42.343L57.4297 39.5764L55.356 37.5499Z" fill="#F2F2F2"/>
<path d="M55.3573 37.5508L54.5137 38.4141L56.5874 40.4406L57.4311 39.5773L55.3573 37.5508Z" fill="#A8A8A8"/>
<path d="M33.8022 19.1906C28.223 24.899 28.3276 34.0496 34.036 39.6288C39.7445 45.208 48.8952 45.1042 54.475 39.3956C60.0549 33.687 59.9504 24.5364 54.2418 18.9565C48.5327 13.3775 39.3821 13.482 33.8022 19.1906ZM53.3163 38.2635C48.3621 43.332 40.2367 43.425 35.1676 38.4709C30.0991 33.5167 30.0061 25.3913 34.9602 20.3221C39.915 15.2535 48.0404 15.1605 53.1089 20.1147C58.1774 25.0689 58.2704 33.1944 53.3163 38.2635Z" fill="#515151"/>
<path d="M54.2411 18.9567C48.5327 13.3775 39.3821 13.482 33.8022 19.1906C28.223 24.899 28.3276 34.0496 34.036 39.6288C39.7445 45.208 48.8952 45.1042 54.475 39.3956C60.0549 33.687 59.9504 24.5364 54.2418 18.9565L54.2411 18.9567ZM53.1089 20.1147C58.1774 25.0689 58.2704 33.1944 53.3163 38.2635C48.3621 43.332 40.2367 43.425 35.1676 38.4709C30.0991 33.5167 30.0061 25.3913 34.9602 20.3221C39.915 15.2535 48.0404 15.1605 53.1089 20.1147Z" fill="#515151"/>
<path d="M54.2411 18.9567C48.5327 13.3775 39.3821 13.482 33.8022 19.1906C28.223 24.899 28.3276 34.0496 34.036 39.6288C39.7446 45.2087 48.8952 45.1042 54.4751 39.3956C60.0549 33.687 59.9504 24.5364 54.2418 18.9565L54.2411 18.9567ZM35.1676 38.4709C30.0991 33.5167 30.0061 25.3913 34.9602 20.3221C39.915 15.2535 48.0404 15.1605 53.1089 20.1147C58.1774 25.0689 58.2704 33.1944 53.3163 38.2635C48.3621 43.332 40.2367 43.425 35.1676 38.4709Z" fill="#515151"/>
<path d="M47.4695 43.5678C46.4437 43.8049 45.3851 43.9325 44.3066 43.9448C40.3926 43.9898 36.6955 42.5072 33.8962 39.7714C31.0969 37.0356 29.5306 33.3732 29.4864 29.4597C29.4415 25.5457 30.924 21.8487 33.6599 19.0494C36.395 16.2502 40.0573 14.6839 43.9715 14.6396C47.8855 14.5946 51.5826 16.0772 54.3819 18.813C57.1812 21.5488 58.7475 25.2112 58.7918 29.1253C58.8368 33.0393 57.3542 36.7364 54.6184 39.5357C52.6362 41.5639 50.1672 42.9447 47.469 43.5686L47.4695 43.5678ZM40.8994 15.4068C38.2748 16.0136 35.8738 17.3568 33.9459 19.3293C28.4526 24.95 28.556 33.9919 34.1761 39.4853C37.7801 43.0075 42.7913 44.2287 47.3708 43.1705C49.9337 42.578 52.3604 41.272 54.3315 39.2553C56.9926 36.5329 58.434 32.9365 58.3906 29.1297C58.3471 25.3229 56.8239 21.761 54.1013 19.0992C51.3789 16.4381 47.7825 14.9967 43.9757 15.0402C42.9274 15.0523 41.8966 15.1762 40.8994 15.4068ZM47.1013 41.9898C46.1886 42.2008 45.2467 42.3145 44.2877 42.3251C40.8062 42.3647 37.5179 41.0466 35.0284 38.6133C32.5389 36.18 31.1457 32.9224 31.1055 29.441C31.0659 25.9595 32.384 22.6712 34.8173 20.1817C39.8413 15.0416 48.1095 14.9471 53.2497 19.9711C58.3897 24.9944 58.4836 33.2635 53.4601 38.4028C51.6968 40.2071 49.5009 41.435 47.1013 41.9898ZM41.2739 16.9908C39.0025 17.516 36.8511 18.6733 35.104 20.4615C32.7449 22.8749 31.4672 26.0621 31.5059 29.4362C31.5446 32.8103 32.8949 35.9682 35.3082 38.3266C37.7214 40.685 40.9087 41.9634 44.2829 41.9247C47.657 41.886 50.8149 40.5357 53.1733 38.1224C58.0427 33.1407 57.9507 25.1261 52.9691 20.2573C49.7749 17.1352 45.3329 16.0523 41.2739 16.9908Z" fill="#515151"/>
<path d="M34.9609 20.3211C30.0069 25.3902 30.0998 33.5156 35.1683 38.4698C40.2368 43.424 48.363 43.3316 53.3171 38.2624C58.2713 33.1939 58.1788 25.0677 53.1097 20.1137C48.0412 15.1595 39.9158 15.2524 34.9609 20.3211ZM52.8869 37.8425C48.165 42.6736 40.4202 42.7622 35.5891 38.0402C30.7578 33.3176 30.6692 25.5728 35.3912 20.7417C40.1132 15.9105 47.8579 15.822 52.6891 20.5439C57.5202 25.2659 57.6087 33.0106 52.8868 37.8418L52.8869 37.8425Z" fill="#E6E6E6"/>
<path opacity="0.2" d="M54.5135 35.7722C58.0916 30.0419 56.3469 22.4958 50.6165 18.9177C44.8862 15.3396 37.3401 17.0843 33.762 22.8147C30.1839 28.545 31.9286 36.0911 37.659 39.6692C43.3893 43.2474 50.9354 41.5026 54.5135 35.7722Z" fill="white"/>
<rect x="53.8184" y="43.0107" width="6" height="18.5865" rx="1" transform="rotate(-45.2936 53.8184 43.0107)" fill="#515151"/>
<path opacity="0.4" d="M44.0024 41.0303C40.9485 40.9736 37.912 39.7835 35.5815 37.4531C33.1659 35.0375 31.9731 31.8632 32.0005 28.6973L44.0024 41.0303ZM53.1323 37.1924C53.0497 37.28 52.9661 37.3674 52.8804 37.4531C51.7452 38.5882 50.4409 39.4502 49.0503 40.0459L33.1216 23.6768C33.7102 22.401 34.5301 21.2057 35.5815 20.1543C35.7464 19.9894 35.9147 19.8302 36.0864 19.6768L53.1323 37.1924ZM47.4351 17C49.4293 17.5394 51.3147 18.5887 52.8804 20.1543C54.5307 21.8047 55.6096 23.8097 56.1196 25.9238L47.4351 17Z" fill="white"/>
</svg>
