<svg width="24" height="24" viewBox="0 0 24 24" fill="none" xmlns="http://www.w3.org/2000/svg">
<g clip-path="url(#clip0_2106_4396)">
<path d="M20 18V9.5C20 9.34475 19.9639 9.19164 19.8944 9.05279C19.825 8.91393 19.7242 8.79315 19.6 8.7L12.6 3.45C12.4269 3.32018 12.2164 3.25 12 3.25C11.7836 3.25 11.5731 3.32018 11.4 3.45L4.4 8.7C4.2758 8.79315 4.175 8.91393 4.10557 9.05279C4.03614 9.19164 4 9.34475 4 9.5V18C4 18.2652 4.10536 18.5196 4.29289 18.7071C4.48043 18.8946 4.73478 19 5 19H9C9.26522 19 9.51957 18.8946 9.70711 18.7071C9.89464 18.5196 10 18.2652 10 18V15C10 14.7348 10.1054 14.4804 10.2929 14.2929C10.4804 14.1054 10.7348 14 11 14H13C13.2652 14 13.5196 14.1054 13.7071 14.2929C13.8946 14.4804 14 14.7348 14 15V18C14 18.2652 14.1054 18.5196 14.2929 18.7071C14.4804 18.8946 14.7348 19 15 19H19C19.2652 19 19.5196 18.8946 19.7071 18.7071C19.8946 18.5196 20 18.2652 20 18Z" stroke="#111111" stroke-width="1.5" stroke-linecap="round" stroke-linejoin="round"/>
</g>
<defs>
<clipPath id="clip0_2106_4396">
<rect width="24" height="24" fill="white"/>
</clipPath>
</defs>
</svg>
