<svg width="34" height="35" viewBox="0 0 34 35" fill="none" xmlns="http://www.w3.org/2000/svg">
<path d="M19.0218 34.6508C17.9049 34.5629 17.5401 32.7863 17.472 31.3481C17.4448 30.7754 16.9913 30.2939 16.4181 30.2939H8.16235C1.74604 30.2939 0.0473196 23.9769 0 20.8184V10.1297C0 2.30537 6.24598 0.116426 9.36896 0H24.771C32.3229 0 34.0689 6.75315 33.998 10.1297V21.2376C33.998 27.1573 28.7925 29.6127 25.766 30.2092C25.4533 30.2708 25.1836 30.4619 25 30.7224C23.7919 32.4378 20.6551 34.7793 19.0218 34.6508Z" fill="url(#paint0_linear_2150_4647)"/>
<path d="M16.5 6.75C17.9562 6.75 19.2747 7.06535 20.4502 7.7002H20.4512C21.6375 8.32406 22.5692 9.19522 23.2412 10.3105H23.2422C23.9154 11.417 24.2499 12.664 24.25 14.0449C24.25 15.0187 24.0729 15.9389 23.7197 16.8037L23.7207 16.8047C23.4073 17.5874 22.9672 18.2833 22.4053 18.8945L24.1426 21.0146L24.3086 21.2178L24.0977 21.374L21.626 23.2012L21.4355 23.3418L21.2842 23.1592L19.3857 20.8584C18.5019 21.1792 17.5398 21.3408 16.5 21.3408C15.0423 21.3408 13.7175 21.0243 12.5303 20.3887C11.3559 19.7648 10.4296 18.9008 9.75781 17.7969V17.7959C9.08507 16.6789 8.75 15.4261 8.75 14.0449C8.75005 12.7503 9.04422 11.5733 9.63574 10.5195L9.75781 10.3105C10.4293 9.19595 11.3547 8.32526 12.5293 7.70117C13.7166 7.06546 15.0422 6.75 16.5 6.75ZM16.5 9.94922C15.7094 9.94922 15.0014 10.1268 14.3711 10.4775C13.7396 10.8291 13.2445 11.3139 12.8809 11.9336L12.8799 11.9326C12.5295 12.5489 12.3526 13.2511 12.3525 14.0449C12.3525 14.8264 12.5291 15.5291 12.8799 16.1572C13.2435 16.7769 13.7395 17.2618 14.3711 17.6133C15.0014 17.964 15.7094 18.1406 16.5 18.1406C16.7174 18.1406 16.9203 18.127 17.1094 18.1035L15.5732 16.2285L15.4072 16.0254L15.6182 15.8691L18.1064 14.0254L18.2979 13.8838L18.4492 14.0674L20.1328 16.1152C20.4744 15.4967 20.6475 14.8086 20.6475 14.0449C20.6474 13.2514 20.4641 12.55 20.1025 11.9336L20.1006 11.9307C19.7486 11.3126 19.2598 10.8287 18.6289 10.4775C17.9986 10.1268 17.2905 9.94922 16.5 9.94922Z" fill="white" stroke="#E27F27" stroke-width="0.5"/>
<defs>
<linearGradient id="paint0_linear_2150_4647" x1="17" y1="0" x2="17" y2="34.6559" gradientUnits="userSpaceOnUse">
<stop stop-color="#FFBD7B"/>
<stop offset="1" stop-color="#FFA555"/>
</linearGradient>
</defs>
</svg>
