<svg width="34" height="35" viewBox="0 0 34 35" fill="none" xmlns="http://www.w3.org/2000/svg">
<path d="M19.0218 34.6508C17.9049 34.5629 17.5401 32.7863 17.472 31.3481C17.4448 30.7754 16.9913 30.2939 16.4181 30.2939H8.16235C1.74604 30.2939 0.0473195 23.9769 0 20.8184V10.1297C0 2.30537 6.24598 0.116426 9.36896 0H24.771C32.3229 0 34.0689 6.75315 33.9979 10.1297V21.2376C33.9979 27.1573 28.7925 29.6127 25.766 30.2092C25.4533 30.2708 25.1836 30.4619 25 30.7224C23.7919 32.4378 20.6551 34.7793 19.0218 34.6508Z" fill="url(#paint0_linear_2150_4481)"/>
<path d="M19.0137 6.75L19.0752 6.91016L25.2334 22.9102L25.3643 23.25H20.8682L20.8086 23.084L19.7568 20.1484H13.9502L12.8994 23.084L12.8398 23.25H8.63574L8.7666 22.9102L14.9248 6.91016L14.9863 6.75H19.0137ZM15.2207 16.5459H18.4873L16.8535 11.9639L15.2207 16.5459Z" fill="white" stroke="#47D25A" stroke-width="0.5"/>
<defs>
<linearGradient id="paint0_linear_2150_4481" x1="17" y1="0" x2="17" y2="34.6559" gradientUnits="userSpaceOnUse">
<stop stop-color="#A6EEA4"/>
<stop offset="1" stop-color="#56E06B"/>
</linearGradient>
</defs>
</svg>
