<svg width="36" height="32" viewBox="0 0 36 32" fill="none" xmlns="http://www.w3.org/2000/svg">
<rect y="2.34521" width="25.0084" height="29.437" rx="3.12606" fill="#FFE9B7"/>
<path d="M4.42773 11.2017H14.8479" stroke="#FEC530" stroke-width="2.60505" stroke-linecap="round"/>
<path d="M4.42773 17.7148H14.8479" stroke="#FEC530" stroke-width="2.60505" stroke-linecap="round"/>
<path d="M4.42773 23.4463H14.8479" stroke="#FEC530" stroke-width="2.60505" stroke-linecap="round"/>
<path d="M12.708 21.7109L15.4658 15.3623L21.5347 21.0772L15.5528 24.3898L12.708 21.7109Z" fill="#FFF8E8"/>
<path d="M27.7878 2.2761C28.3796 1.64765 29.3688 1.61793 29.9973 2.20972L33.7904 5.78151C34.4188 6.3733 34.4485 7.36251 33.8567 7.99097L21.5341 21.0771L15.4652 15.3622L27.7878 2.2761Z" fill="#70A3F7"/>
<path d="M27.7878 2.2761C28.3796 1.64765 29.3688 1.61793 29.9973 2.20972L32.0835 4.1742L18.6893 18.3982L15.4652 15.3622L27.7878 2.2761Z" fill="#4787E2"/>
<path d="M28.8591 1.13841C29.4509 0.509953 30.4401 0.480232 31.0686 1.07203L34.8617 4.64382C35.4901 5.23561 35.5198 6.22482 34.928 6.85327L32.6064 9.31877L26.5375 3.6039L28.8591 1.13841Z" fill="#EB3D43"/>
<path d="M15.5538 24.3898L12.709 21.7109C12.1545 22.6797 11.3767 24.7503 11.9883 25.3262C12.6521 25.9513 14.6163 24.8787 15.5538 24.3898Z" fill="#585755"/>
</svg>
