<svg width="38" height="40" viewBox="0 0 38 40" fill="none" xmlns="http://www.w3.org/2000/svg">
<rect x="23.7266" y="28.6899" width="5.44312" height="15.1147" rx="2.72156" transform="rotate(-42.8769 23.7266 28.6899)" fill="url(#paint0_linear_2120_4438)"/>
<circle cx="16.7999" cy="16.7999" r="14.7999" stroke="#E3DEFE" stroke-width="4"/>
<path d="M16.7666 5.46143C17.1142 5.4615 17.3962 5.74278 17.3965 6.09033V6.2124H19.7793C20.127 6.21246 20.409 6.49461 20.4092 6.84229V8.34424C20.4092 8.69202 20.1271 8.97407 19.7793 8.97412H17.3965V9.80811L22.2158 13.5298V17.2954H25.0029C25.2491 17.2955 25.4851 17.4092 25.6592 17.6108C25.8334 17.8126 25.9316 18.0863 25.9316 18.3716V23.2134C25.9316 23.4987 25.8334 23.7723 25.6592 23.9741C25.485 24.1758 25.2492 24.2895 25.0029 24.2896H7.35352V18.3716C7.35354 18.0863 7.45084 17.8126 7.625 17.6108C7.79921 17.4091 8.03586 17.2954 8.28223 17.2954H11.0684V13.5298L15.8896 9.80713V6.09033C15.8899 5.74277 16.1719 5.46149 16.5195 5.46143H16.7666Z" fill="url(#paint1_linear_2120_4438)"/>
<path d="M14.2803 19.9471C14.2803 19.2514 14.8442 18.6875 15.5398 18.6875H17.7441C18.4397 18.6875 19.0036 19.2514 19.0036 19.9471V24.3555H14.2803V19.9471Z" fill="#FCFDFF"/>
<defs>
<linearGradient id="paint0_linear_2120_4438" x1="26.6917" y1="28.9673" x2="26.3459" y2="37.6699" gradientUnits="userSpaceOnUse">
<stop stop-color="#7468B3"/>
<stop offset="1" stop-color="#907DF1"/>
</linearGradient>
<linearGradient id="paint1_linear_2120_4438" x1="16.6426" y1="15.5372" x2="16.6426" y2="24.2895" gradientUnits="userSpaceOnUse">
<stop stop-color="#72A8FB"/>
<stop offset="1" stop-color="#5699FF"/>
</linearGradient>
</defs>
</svg>
