<svg width="34" height="35" viewBox="0 0 34 35" fill="none" xmlns="http://www.w3.org/2000/svg">
<path d="M19.0218 34.6508C17.9049 34.5629 17.5401 32.7863 17.472 31.3481C17.4448 30.7754 16.9913 30.2939 16.4181 30.2939H8.16235C1.74604 30.2939 0.0473195 23.9769 0 20.8184V10.1297C0 2.30537 6.24598 0.116426 9.36896 0H24.771C32.3229 0 34.0689 6.75315 33.9979 10.1297V21.2376C33.9979 27.1573 28.7925 29.6127 25.766 30.2092C25.4533 30.2708 25.1836 30.4619 25 30.7224C23.7919 32.4378 20.6551 34.7793 19.0218 34.6508Z" fill="url(#paint0_linear_2150_4449)"/>
<g clip-path="url(#clip0_2150_4449)">
<ellipse cx="16.9531" cy="16.1022" rx="9.66012" ry="9.65986" fill="#F8F8F8"/>
<ellipse cx="20.217" cy="15.9391" rx="1.08318" ry="1.08315" fill="black"/>
<ellipse cx="14.2961" cy="15.9391" rx="1.08318" ry="1.08315" fill="black"/>
<path d="M17.2422 16.1011C16.3211 16.1011 15.707 16.4643 15.707 16.788C15.707 17.319 16.3149 17.9707 17.3005 17.9707C18.2862 17.9707 18.7975 17.2122 18.7975 16.788C18.7975 16.5071 18.1633 16.1011 17.2422 16.1011Z" fill="#F57F00"/>
<ellipse cx="13.0565" cy="17.971" rx="1.09066" ry="0.934825" fill="#F57F00" fill-opacity="0.15"/>
<ellipse cx="21.4705" cy="17.971" rx="1.09066" ry="0.934825" fill="#F57F00" fill-opacity="0.15"/>
<path d="M15.1464 3.19704C13.5879 3.62496 14.1048 6.27181 14.9989 7.42061L19.4648 8.21772C20.1603 7.06902 20.7857 5.14678 19.422 3.90044C18.559 3.11163 17.3528 3.97447 17.3827 4.44708C17.1379 3.53989 16.1419 2.9237 15.1464 3.19704Z" fill="#E80000"/>
</g>
<defs>
<linearGradient id="paint0_linear_2150_4449" x1="17" y1="0" x2="17" y2="34.6559" gradientUnits="userSpaceOnUse">
<stop stop-color="#AF9FFF"/>
<stop offset="1" stop-color="#876FFF"/>
</linearGradient>
<clipPath id="clip0_2150_4449">
<rect width="19.6165" height="23" fill="white" transform="translate(7.29102 3)"/>
</clipPath>
</defs>
</svg>
