<svg width="31" height="37" viewBox="0 0 31 37" fill="none" xmlns="http://www.w3.org/2000/svg">
<path d="M15.3701 0C11.2937 0 7.38426 1.54117 4.5018 4.28447C1.61935 7.02778 0 10.7485 0 14.6281C0 18.0877 0.773629 20.3526 2.8819 22.8564L13.8914 34.9464C14.6847 35.8176 16.0555 35.8176 16.8489 34.9464L27.8583 22.8564C29.9666 20.3526 30.7402 18.0877 30.7402 14.6281C30.7402 10.7485 29.1209 7.02778 26.2384 4.28447C23.356 1.54117 19.4465 0 15.3701 0Z" fill="#656565"/>
<path d="M15.3447 6.0957C15.6373 6.09591 15.874 6.33339 15.874 6.62598V6.72949H17.8799C18.1725 6.72955 18.4102 6.96709 18.4102 7.25977V8.52344C18.4102 8.81611 18.1725 9.05365 17.8799 9.05371H15.874V9.75293L19.9316 12.8867V16.0566H22.2764C22.4836 16.0566 22.6825 16.1516 22.8291 16.3213C22.9757 16.4911 23.0586 16.7218 23.0586 16.9619V21.0371C23.0585 21.2771 22.9756 21.5071 22.8291 21.6768C22.6825 21.8466 22.4837 21.9424 22.2764 21.9424H7.42285V16.9619C7.42285 16.7218 7.50574 16.4911 7.65234 16.3213C7.79893 16.1516 7.99784 16.0566 8.20508 16.0566H10.5498V12.8867L14.6064 9.75391V6.62598C14.6064 6.33326 14.844 6.0957 15.1367 6.0957H15.3447Z" fill="url(#paint0_linear_2120_4415)"/>
<path d="M13.251 18.2861C13.251 17.7007 13.7256 17.2261 14.311 17.2261H16.166C16.7514 17.2261 17.226 17.7007 17.226 18.2861V21.9961H13.251V18.2861Z" fill="#656565"/>
<defs>
<linearGradient id="paint0_linear_2120_4415" x1="15.001" y1="17.5" x2="15.2407" y2="21.9424" gradientUnits="userSpaceOnUse">
<stop stop-color="#FFE9B7"/>
<stop offset="1" stop-color="#FEC530"/>
</linearGradient>
</defs>
</svg>
