<svg width="34" height="35" viewBox="0 0 34 35" fill="none" xmlns="http://www.w3.org/2000/svg">
<path d="M19.0218 34.6508C17.9049 34.5629 17.5401 32.7863 17.472 31.3481C17.4448 30.7754 16.9913 30.2939 16.4181 30.2939H8.16235C1.74604 30.2939 0.0473195 23.9769 0 20.8184V10.1297C0 2.30537 6.24598 0.116426 9.36896 0H24.771C32.3229 0 34.0689 6.75315 33.9979 10.1297V21.2376C33.9979 27.1573 28.7925 29.6127 25.766 30.2092C25.4533 30.2708 25.1836 30.4619 25 30.7224C23.7919 32.4378 20.6551 34.7793 19.0218 34.6508Z" fill="url(#paint0_linear_2150_4435)"/>
<ellipse cx="17.3856" cy="16.025" rx="9.38562" ry="9.66167" fill="#FEDD41"/>
<ellipse cx="20.5583" cy="15.8617" rx="1.0524" ry="1.08335" fill="#111111"/>
<ellipse cx="14.8044" cy="15.8617" rx="1.0524" ry="1.08335" fill="#111111"/>
<path d="M17.6673 16.0244C16.7724 16.0244 16.1758 16.3877 16.1758 16.7115C16.1758 17.2426 16.7663 17.8944 17.724 17.8944C18.6817 17.8944 19.1784 17.1358 19.1784 16.7115C19.1784 16.4305 18.5622 16.0244 17.6673 16.0244Z" fill="#F57F00"/>
<ellipse cx="13.6007" cy="17.895" rx="1.05967" ry="0.935001" fill="#F57F00" fill-opacity="0.3"/>
<ellipse cx="21.7765" cy="17.895" rx="1.05967" ry="0.935001" fill="#F57F00" fill-opacity="0.3"/>
<path d="M15.6318 3.11815C14.1176 3.54614 14.6198 6.19349 15.4886 7.34251L19.8275 8.13977C20.5032 6.99085 21.1109 5.06825 19.786 3.82167C18.9475 3.03272 17.7755 3.89573 17.8046 4.36842C17.5668 3.46107 16.599 2.84476 15.6318 3.11815Z" fill="#FEDD41"/>
<defs>
<linearGradient id="paint0_linear_2150_4435" x1="17" y1="0" x2="17" y2="34.6559" gradientUnits="userSpaceOnUse">
<stop stop-color="#8F9AFF"/>
<stop offset="1" stop-color="#7784FF"/>
</linearGradient>
</defs>
</svg>
