<svg width="34" height="43" viewBox="0 0 34 43" fill="none" xmlns="http://www.w3.org/2000/svg">
<path d="M9.17939 19.1082L1.67853 15.6642C0.893962 15.304 0 15.8772 0 16.7406V36.645C0 37.0717 0.229533 37.4655 0.600857 37.6757L8.10172 41.9223C8.89124 42.3692 9.86956 41.7989 9.86956 40.8916V20.1845C9.86956 19.7217 9.59998 19.3013 9.17939 19.1082Z" fill="#C0EEA4"/>
<path d="M10.7535 19.0318L19.0439 16.8609C19.7945 16.6643 20.5283 17.2306 20.5283 18.0066V38.4829C20.5283 38.9914 20.2037 39.4431 19.7218 39.6053L11.4314 42.3966C10.6638 42.655 9.86914 42.084 9.86914 41.2742V20.1776C9.86914 19.639 10.2325 19.1683 10.7535 19.0318Z" fill="#82D962"/>
<path d="M31.0844 19.1551L22.0044 16.8473C21.2558 16.6571 20.5283 17.2228 20.5283 17.9952V38.3306C20.5283 38.8581 20.8772 39.322 21.384 39.4684L30.464 42.0908C31.2213 42.3096 31.977 41.7413 31.977 40.953V20.3029C31.977 19.7612 31.6094 19.2885 31.0844 19.1551Z" fill="#C0EEA4"/>
<path d="M21.9588 0C18.7654 0 15.7028 1.20734 13.4447 3.35643C11.1866 5.50552 9.91797 8.42031 9.91797 11.4596C9.91797 14.1698 10.524 15.9441 12.1756 17.9056L21.1914 27.8061C21.6031 28.2583 22.3146 28.2583 22.7263 27.8061L31.742 17.9056C33.3936 15.9441 33.9997 14.1698 33.9997 11.4596C33.9997 8.42031 32.7311 5.50552 30.473 3.35643C28.2149 1.20734 25.1523 0 21.9588 0Z" fill="#656565"/>
<path d="M21.9365 4.77637C22.1657 4.77637 22.3514 4.96225 22.3516 5.19141V5.27344H23.9229C24.1521 5.27345 24.3378 5.45929 24.3379 5.68848V6.67871C24.3379 6.90801 24.1521 7.09373 23.9229 7.09375H22.3516V7.64355L25.5303 10.0977V12.5811H27.3672C27.5294 12.5811 27.685 12.6553 27.7998 12.7881C27.9147 12.9211 27.9795 13.1019 27.9795 13.29V16.4824C27.9794 16.6705 27.9146 16.8504 27.7998 16.9834C27.685 17.1164 27.5296 17.1914 27.3672 17.1914H15.7314V13.29C15.7314 13.1019 15.7953 12.9211 15.9102 12.7881C16.025 12.6551 16.1813 12.5811 16.3438 12.5811H18.1807V10.0977L21.3584 7.64355V5.19141C21.3586 4.96239 21.5444 4.7766 21.7734 4.77637H21.9365Z" fill="url(#paint0_linear_2120_4447)"/>
<path d="M20.2988 14.3265C20.2988 13.8679 20.6706 13.4961 21.1292 13.4961H22.5824C23.0411 13.4961 23.4128 13.8679 23.4128 14.3265V17.2329H20.2988V14.3265Z" fill="#656565"/>
<defs>
<linearGradient id="paint0_linear_2120_4447" x1="21.8555" y1="11.4202" x2="21.8555" y2="17.1914" gradientUnits="userSpaceOnUse">
<stop stop-color="#FFE9B7"/>
<stop offset="1" stop-color="#FFCA4C"/>
</linearGradient>
</defs>
</svg>
